<?xml version="1.0" encoding="utf-8"?>
<!-- Generator: Adobe Illustrator 16.0.0, SVG Export Plug-In . SVG Version: 6.00 Build 0)  -->
<!DOCTYPE svg PUBLIC "-//W3C//DTD SVG 1.1//EN" "http://www.w3.org/Graphics/SVG/1.1/DTD/svg11.dtd">
<svg version="1.1" id="Layer_1" xmlns="http://www.w3.org/2000/svg" xmlns:xlink="http://www.w3.org/1999/xlink" x="0px" y="0px"
	 width="612px" height="792px" viewBox="0 0 612 792" enable-background="new 0 0 612 792" xml:space="preserve">
<g>
	<path fill="#CCCCCC" d="M573.75,128.25v535.5H38.25v-535.5H573.75 M592.875,109.125H19.125v573.75h573.75V109.125L592.875,109.125z
		"/>
	<path fill="#CCCCCC" d="M573.75,128.25v535.5H38.25v-535.5H573.75 M592.875,109.125H19.125v573.75h573.75V109.125L592.875,109.125z
		"/>
</g>
<path fill="#CCCCCC" d="M431.479,228.694H180.521c-23.62,0-41.827,18.207-41.827,41.827V521.46
	c0,23.601,18.207,41.826,41.827,41.826H431.46c23.601,0,41.826-18.207,41.826-41.826V270.521
	C473.306,246.901,455.099,228.694,431.479,228.694z M306.249,330.268c37.103,0,67.167,29.146,67.167,65.101
	c0,35.936-30.064,65.102-67.167,65.102c-37.084,0-67.148-29.166-67.148-65.102C239.101,359.414,269.185,330.268,306.249,330.268z
	 M431.479,511.018c0,7.325-3.137,10.462-10.462,10.462H190.982c-7.306,0-10.461-3.118-10.461-10.462V364.635l26.067,5.661
	c-2.792,9.104-4.322,18.724-4.322,28.688c0,55.597,46.588,100.731,103.963,100.731c57.433,0,103.964-45.116,103.964-100.731
	c0-9.983-1.511-19.603-4.304-28.688l25.552-5.661v146.383H431.479z M431.479,322.79c0,5.776-4.686,10.461-10.462,10.461h-41.826
	c-5.775,0-10.461-4.686-10.461-10.461v-41.807c0-5.776,4.686-10.461,10.461-10.461h41.826c5.776,0,10.462,4.686,10.462,10.461
	V322.79z"/>
</svg>
