<?xml version="1.0" encoding="utf-8"?>
<!-- Generator: Adobe Illustrator 16.0.0, SVG Export Plug-In . SVG Version: 6.00 Build 0)  -->
<!DOCTYPE svg PUBLIC "-//W3C//DTD SVG 1.1//EN" "http://www.w3.org/Graphics/SVG/1.1/DTD/svg11.dtd">
<svg version="1.1" id="Layer_1" xmlns="http://www.w3.org/2000/svg" xmlns:xlink="http://www.w3.org/1999/xlink" x="0px" y="0px"
	 width="612px" height="792px" viewBox="0 0 612 792" enable-background="new 0 0 612 792" xml:space="preserve">
<g id="Line">
	<g>
		<path fill="#CCCCCC" d="M573.75,128.25v535.5H38.25v-535.5H573.75 M592.875,109.125H19.125v573.75h573.75V109.125L592.875,109.125
			z"/>
		<path fill="#CCCCCC" d="M573.75,128.25v535.5H38.25v-535.5H573.75 M592.875,109.125H19.125v573.75h573.75V109.125L592.875,109.125
			z"/>
	</g>
	<path fill="#CCCCCC" d="M346.946,265.185c-29.242,10.633-47.716,38.078-45.613,68.123l0.708,11.59l-11.705-1.415
		c-42.572-5.432-79.77-23.887-111.365-54.87l-15.453-15.396l-3.978,11.36c-8.415,25.302-3.041,52.039,14.497,70.017
		c9.352,9.945,7.248,11.36-8.893,5.432c-5.623-1.894-10.519-3.309-10.997-2.601c-1.625,1.664,3.978,23.18,8.415,31.69
		c6.082,11.838,18.475,23.409,32.054,30.274l11.475,5.432l-13.56,0.229c-13.101,0-13.56,0.229-12.164,5.222
		c4.686,15.376,23.161,31.689,43.739,38.804l14.497,4.954l-12.623,7.573c-18.704,10.901-40.698,17.04-62.692,17.499
		c-10.538,0.229-19.201,1.187-19.201,1.894c0,2.353,28.554,15.606,45.154,20.809c49.821,15.376,109.032,8.739,153.478-17.5
		c31.576-18.685,63.151-55.826,77.916-91.78c7.955-19.145,15.911-54.163,15.911-70.935c0-10.882,0.708-12.297,13.809-25.302
		c7.727-7.574,14.975-15.835,16.371-18.207c2.353-4.495,2.104-4.495-9.83-0.478c-19.891,7.095-22.701,6.158-12.871-4.495
		c7.248-7.573,15.912-21.286,15.912-25.302c0-0.708-3.5,0.478-7.497,2.601c-4.208,2.372-13.56,5.91-20.579,8.032l-12.622,4.036
		l-11.475-7.822c-6.312-4.246-15.205-8.989-19.891-10.404C375.959,260.939,357.695,261.398,346.946,265.185z"/>
</g>
</svg>
