<?xml version="1.0" encoding="utf-8"?>
<!-- Generator: Adobe Illustrator 16.0.0, SVG Export Plug-In . SVG Version: 6.00 Build 0)  -->
<!DOCTYPE svg PUBLIC "-//W3C//DTD SVG 1.1//EN" "http://www.w3.org/Graphics/SVG/1.1/DTD/svg11.dtd">
<svg version="1.1" id="Capa_1" xmlns="http://www.w3.org/2000/svg" xmlns:xlink="http://www.w3.org/1999/xlink" x="0px" y="0px"
	 width="612px" height="435.082px" viewBox="0 0 612 435.082" enable-background="new 0 0 612 435.082" xml:space="preserve">
<g>
	<path fill="#CCCCCC" stroke="#000000" stroke-width="0.5" stroke-miterlimit="10" d="M562.664,435.082H49.336
		C22.142,435.082,0,412.96,0,385.746V49.335C0,22.123,22.142,0,49.336,0h513.328C589.858,0,612,22.123,612,49.335v336.413
		C612,412.96,589.858,435.082,562.664,435.082z M49.336,19.734c-16.32,0-29.602,13.281-29.602,29.601v336.413
		c0,16.318,13.281,29.602,29.602,29.602h513.328c16.32,0,29.602-13.281,29.602-29.602V49.335c0-16.32-13.279-29.601-29.602-29.601
		H49.336z"/>
	<path fill="#CCCCCC" d="M306,267.123c-13.124,0-26.247-4.361-36.232-13.062L16.379,33.015c-4.104-3.572-4.539-9.808-0.967-13.933
		c3.611-4.105,9.828-4.479,13.932-0.947L282.733,239.16c12.61,10.99,33.923,10.99,46.514,0L582.319,18.49
		c4.085-3.572,10.302-3.178,13.933,0.947c3.572,4.125,3.157,10.341-0.947,13.933L342.232,254.039
		C332.227,262.761,319.123,267.123,306,267.123z"/>
</g>
</svg>
