<?xml version="1.0" encoding="utf-8"?>
<!-- Generator: Adobe Illustrator 16.0.0, SVG Export Plug-In . SVG Version: 6.00 Build 0)  -->
<!DOCTYPE svg PUBLIC "-//W3C//DTD SVG 1.1//EN" "http://www.w3.org/Graphics/SVG/1.1/DTD/svg11.dtd">
<svg version="1.1" id="Capa_1" xmlns="http://www.w3.org/2000/svg" xmlns:xlink="http://www.w3.org/1999/xlink" x="0px" y="0px"
	 width="612px" height="435.081px" viewBox="0 178.45 612 435.081" enable-background="new 0 178.45 612 435.081"
	 xml:space="preserve">
<g>
	<path fill="#414753" stroke="#000000" stroke-width="0.5" stroke-miterlimit="10" d="M562.664,613.531H49.336
		C22.142,613.531,0,591.409,0,564.195v-336.41c0-27.213,22.142-49.335,49.336-49.335h513.328c27.194,0,49.336,22.122,49.336,49.335
		v336.411C612,591.409,589.858,613.531,562.664,613.531z M49.336,198.184c-16.32,0-29.602,13.281-29.602,29.601v336.411
		c0,16.319,13.281,29.602,29.602,29.602h513.328c16.32,0,29.602-13.281,29.602-29.602V227.785c0-16.32-13.28-29.601-29.602-29.601
		H49.336z"/>
	<path fill="#414753" d="M306,445.572c-13.124,0-26.247-4.361-36.232-13.063L16.379,211.465c-4.104-3.572-4.539-9.808-0.967-13.933
		c3.611-4.105,9.828-4.479,13.932-0.947l253.389,221.024c12.61,10.99,33.923,10.99,46.514,0L582.319,196.94
		c4.085-3.572,10.302-3.178,13.933,0.947c3.572,4.125,3.157,10.341-0.947,13.933L342.232,432.488
		C332.227,441.211,319.123,445.572,306,445.572z"/>
</g>
</svg>
