<?xml version="1.0" encoding="utf-8"?>
<!-- Generator: Adobe Illustrator 16.0.0, SVG Export Plug-In . SVG Version: 6.00 Build 0)  -->
<!DOCTYPE svg PUBLIC "-//W3C//DTD SVG 1.1//EN" "http://www.w3.org/Graphics/SVG/1.1/DTD/svg11.dtd">
<svg version="1.1" id="Layer_1" xmlns="http://www.w3.org/2000/svg" xmlns:xlink="http://www.w3.org/1999/xlink" x="0px" y="0px"
	 width="612px" height="792px" viewBox="0 0 612 792" enable-background="new 0 0 612 792" xml:space="preserve">
<g id="Line">
	<g>
		<path fill="#CCCCCC" d="M573.75,128.25v535.5H38.25v-535.5H573.75 M592.875,109.125H19.125v573.75h573.75V109.125L592.875,109.125
			z"/>
		<path fill="#CCCCCC" d="M573.75,128.25v535.5H38.25v-535.5H573.75 M592.875,109.125H19.125v573.75h573.75V109.125L592.875,109.125
			z"/>
	</g>
	<path fill="#CCCCCC" d="M265.685,551.353h64.202V395.981h42.821l5.68-53.531h-48.501l0.058-26.813
		c0-13.961,1.339-21.439,21.363-21.439h26.774v-53.55h-42.84c-51.446,0-69.558,25.972-69.558,69.653v32.149h-32.073V396h32.073
		V551.353L265.685,551.353z"/>
</g>
</svg>
